# xmcd
#
# Track frame offsets: 
#        150
#        18552
#        26745
#        37335
#        49749
#        64580
#        83663
#        93176
#        111389
#        128770
#        141988
#
# Disc length: 2062 seconds
#
# Revision: 0
# Processed by: cddbd v1.5.2PL0 Copyright (c) Steve Scherf et al.
# Submitted via: ExactAudioCopy v0.99pb4
#
DISCID=96080c0b
DTITLE=Dan "Mudcat" McKinstry - Live!
DYEAR=2008
DGENRE=Blues
TTITLE0=Candyman
TTITLE1=The Buzzard Song
TTITLE2=Bullfrog Blues
TTITLE3=Charlie's Neat
TTITLE4=Cajun Moon
TTITLE5=Waymore's Blues
TTITLE6=Dark As The Night
TTITLE7=Can't Keep From Crying
TTITLE8=Words
TTITLE9=In Mexico
TTITLE10=You Got To Move
EXTD=
EXTT0=
EXTT1=
EXTT2=
EXTT3=
EXTT4=
EXTT5=
EXTT6=
EXTT7=
EXTT8=
EXTT9=
EXTT10=
PLAYORDER=
